<svg width="24" height="24" viewBox="0 0 24 24" fill="none" xmlns="http://www.w3.org/2000/svg">
    <path d="M22.5601 16.3002L14.8901 3.58018C14.58 3.095 14.1527 2.69571 13.6476 2.41912C13.1425 2.14253 12.5759 1.99756 12.0001 1.99756C11.4243 1.99756 10.8577 2.14253 10.3526 2.41912C9.84755 2.69571 9.42024 3.095 9.1101 3.58018L1.4401 16.3002C1.16915 16.7518 1.02189 17.2669 1.01311 17.7935C1.00434 18.3201 1.13436 18.8397 1.3901 19.3002C1.68578 19.8184 2.11376 20.2489 2.6303 20.5476C3.14684 20.8463 3.73343 21.0025 4.3301 21.0002H19.6701C20.2629 21.0065 20.8468 20.8564 21.363 20.5649C21.8792 20.2735 22.3093 19.851 22.6101 19.3402C22.8734 18.875 23.0075 18.3478 22.9987 17.8134C22.9899 17.2789 22.8385 16.7565 22.5601 16.3002ZM12.0001 17.0002C11.8023 17.0002 11.609 16.9415 11.4445 16.8317C11.2801 16.7218 11.1519 16.5656 11.0762 16.3829C11.0005 16.2001 10.9807 15.9991 11.0193 15.8051C11.0579 15.6111 11.1531 15.4329 11.293 15.2931C11.4328 15.1532 11.611 15.058 11.805 15.0194C11.999 14.9808 12.2001 15.0006 12.3828 15.0763C12.5655 15.152 12.7217 15.2802 12.8316 15.4446C12.9415 15.6091 13.0001 15.8024 13.0001 16.0002C13.0001 16.2654 12.8947 16.5198 12.7072 16.7073C12.5197 16.8948 12.2653 17.0002 12.0001 17.0002ZM13.0001 13.0002C13.0001 13.2654 12.8947 13.5198 12.7072 13.7073C12.5197 13.8948 12.2653 14.0002 12.0001 14.0002C11.7349 14.0002 11.4805 13.8948 11.293 13.7073C11.1055 13.5198 11.0001 13.2654 11.0001 13.0002V9.00018C11.0001 8.73497 11.1055 8.48061 11.293 8.29308C11.4805 8.10554 11.7349 8.00018 12.0001 8.00018C12.2653 8.00018 12.5197 8.10554 12.7072 8.29308C12.8947 8.48061 13.0001 8.73497 13.0001 9.00018V13.0002Z" fill="#DF125C"/>
</svg>
