<svg width="42" height="42" viewBox="0 0 42 42" fill="none" xmlns="http://www.w3.org/2000/svg"><path d="M42 21.001C42 9.40299 32.598 0.000976562 21 0.000976562C9.40201 0.000976562 0 9.40299 0 21.001C0 31.4827 7.67939 40.1705 17.7188 41.7459V27.0713H12.3867V21.001H17.7188V16.3744C17.7188 11.1113 20.8539 8.20411 25.6508 8.20411C27.9484 8.20411 30.3516 8.61426 30.3516 8.61426V13.7822H27.7035C25.0948 13.7822 24.2813 15.401 24.2813 17.0617V21.001H30.1055L29.1744 27.0713H24.2812V41.7459C34.3206 40.1705 42 31.4827 42 21.001Z" fill="#1877F2"/><path d="M29.1744 27.0713L30.1055 21.001H24.2812V17.0617C24.2812 15.401 25.0948 13.7822 27.7035 13.7822H30.3516V8.61425C30.3516 8.61425 27.9483 8.2041 25.6507 8.2041C20.8539 8.2041 17.7187 11.1113 17.7187 16.3744V21.001H12.3867V27.0713H17.7187V41.7459C18.8042 41.916 19.9013 42.0013 21 42.001C22.1163 42.001 23.2121 41.9136 24.2812 41.7459V27.0713H29.1744Z" fill="white"/></svg>
