<svg width="43" height="42" viewBox="0 0 43 42" fill="none" xmlns="http://www.w3.org/2000/svg"><path d="M42.9653 21.0522C42.9653 28.2741 39.5848 31.6546 35.3336 31.6546C32.875 31.6546 30.7238 30.3741 29.4945 28.4278C27.5482 30.3741 24.936 31.6034 21.9653 31.6034C16.1263 31.6034 11.4141 26.8912 11.4141 21.0522C11.4141 15.2132 16.1263 10.501 21.9653 10.501C27.8043 10.501 32.5165 15.2132 32.5165 21.0522V24.4839C32.5165 26.2254 33.7458 27.4546 35.3336 27.4546C37.2287 27.4546 38.7653 25.8668 38.7653 21.0522C38.7653 11.7815 31.236 4.2522 21.9653 4.2522C12.6945 4.2522 5.11406 11.7815 5.11406 21.0522C5.11406 30.3229 12.6433 37.8522 21.9141 37.8522C27.2921 37.8522 30.9799 35.1888 30.9799 35.1888L33.7458 38.3644C33.7458 38.3644 29.0336 42.001 21.9141 42.001C10.3385 42.001 0.914062 32.5766 0.914062 21.001C0.914062 9.42537 10.3385 0.000976562 21.9141 0.000976562C33.5409 0.0521961 42.9653 9.47659 42.9653 21.0522ZM21.9653 27.4546C25.4994 27.4546 28.3677 24.5863 28.3677 21.0522C28.3677 17.518 25.4994 14.6498 21.9653 14.6498C18.4311 14.6498 15.5628 17.518 15.5628 21.0522C15.5628 24.5863 18.4311 27.4546 21.9653 27.4546Z" fill="#FC2C38"/></svg>
