<svg width="42" height="42" viewBox="0 0 42 42" fill="none" xmlns="http://www.w3.org/2000/svg"><path fill-rule="evenodd" clip-rule="evenodd" d="M27.44 0.000976562C39.2 0.000976562 42 2.80098 42 14.561V27.441C42 39.201 39.2 42.001 27.44 42.001H14.56C2.8 42.001 0 39.201 0 27.441V14.561C0 2.80098 2.8 0.000976562 14.56 0.000976562H27.44ZM11.375 13.126H8.3125C7.4375 13.126 7.2625 13.546 7.2625 13.9835C7.2625 14.806 8.295 18.831 12.0925 24.151C13.0971 25.7562 14.4678 27.1005 16.0921 28.0739C17.7164 29.0473 19.5482 29.622 21.4375 29.751C23.38 29.751 23.625 29.3135 23.625 28.561V25.8135C23.625 24.9385 23.8175 24.7635 24.43 24.7635C25.0425 24.7635 25.655 24.991 27.475 26.741C29.5575 28.8235 29.89 29.751 31.0625 29.751H34.125C35 29.751 35.4375 29.3135 35.1925 28.456C34.5405 27.121 33.6645 25.9076 32.6025 24.8685C31.885 24.011 30.8525 23.1185 30.485 22.6635C30.1175 22.2085 30.17 21.806 30.485 21.2985C32.1067 19.1186 33.4912 16.772 34.615 14.2985C34.8075 13.651 34.615 13.1785 33.6875 13.1785H30.625C30.3412 13.1629 30.0597 13.2374 29.8209 13.3914C29.582 13.5454 29.3979 13.771 29.295 14.036C28.346 16.293 27.079 18.4027 25.5325 20.301C24.815 21.0185 24.4825 21.246 24.0975 21.246C23.7125 21.246 23.625 21.0185 23.625 20.371V14.246C23.625 13.476 23.3975 13.126 22.75 13.126H17.9375C17.7407 13.1164 17.548 13.1843 17.4008 13.3152C17.2536 13.446 17.1635 13.6294 17.15 13.826C17.15 14.561 18.27 14.736 18.375 16.8185V21.316C18.375 22.3135 18.2 22.4885 17.815 22.4885C16.765 22.4885 14.315 18.6735 12.74 14.316C12.46 13.476 12.25 13.126 11.375 13.126Z" fill="#4872A3"/></svg>
