<svg width="24" height="24" viewBox="0 0 24 24" fill="none" xmlns="http://www.w3.org/2000/svg">
    <path d="M11.0008 14.986C11.0008 15.2512 11.1061 15.5056 11.2936 15.6931C11.4812 15.8806 11.7355 15.986 12.0008 15.986C12.266 15.986 12.5203 15.8806 12.7079 15.6931C12.8954 15.5056 13.0008 15.2512 13.0008 14.986V7.828L16.2437 11.071L17.6577 9.657L12.0008 4L6.34375 9.657L7.75775 11.071L11.0008 7.83V14.987V14.986Z" fill="#DF125C"/>
    <path d="M4 14H6V18H18V14H20V18C20 18.5304 19.7893 19.0391 19.4142 19.4142C19.0391 19.7893 18.5304 20 18 20H6C5.46957 20 4.96086 19.7893 4.58579 19.4142C4.21071 19.0391 4 18.5304 4 18V14Z" fill="#DF125C"/>
</svg>
