<svg width="16" height="16" viewBox="0 0 16 16" fill="none" xmlns="http://www.w3.org/2000/svg">
    <path d="M9.0012 0.999839C9.0012 0.734623 8.89585 0.480269 8.70831 0.292733C8.52077 0.105197 8.26642 -0.000160689 8.0012 -0.000160712C7.73599 -0.000160735 7.48163 0.105196 7.2941 0.292733C7.10656 0.480269 7.0012 0.734622 7.0012 0.999839L7.0012 8.15784L3.7582 4.91484L2.3442 6.32884L8.0012 11.9858L13.6582 6.32884L12.2442 4.91484L9.0012 8.15584L9.0012 0.998839L9.0012 0.999839Z" fill="white"/>
    <path d="M0 10H2V14H14V10H16V14C16 14.5304 15.7893 15.0391 15.4142 15.4142C15.0391 15.7893 14.5304 16 14 16H2C1.46957 16 0.960859 15.7893 0.585786 15.4142C0.210714 15.0391 0 14.5304 0 14V10Z" fill="white"/>
</svg>
