<svg width="34" height="34" viewBox="0 0 34 34" xmlns="http://www.w3.org/2000/svg"><g clip-path="url(#clip0)"><path d="M17 6.86621C10.5039 6.86621 4.61297 10.4203 0.266032 16.193C-0.0886775 16.6659 -0.0886775 17.3267 0.266032 17.7996C4.61297 23.5793 10.5039 27.1334 17 27.1334C23.4961 27.1334 29.387 23.5793 33.734 17.8066C34.0887 17.3336 34.0887 16.6729 33.734 16.2C29.387 10.4203 23.4961 6.86621 17 6.86621ZM17.466 24.1357C13.1538 24.407 9.59282 20.8529 9.86407 16.5338C10.0866 12.9728 12.973 10.0864 16.534 9.86386C20.8462 9.59261 24.4072 13.1467 24.1359 17.4658C23.9064 21.0198 21.02 23.9062 17.466 24.1357ZM17.2504 20.839C14.9274 20.9851 13.0078 19.0724 13.1608 16.7494C13.279 14.8298 14.837 13.2788 16.7566 13.1536C19.0796 13.0076 20.9992 14.9202 20.8462 17.2432C20.721 19.1698 19.163 20.7208 17.2504 20.839Z"/></g><defs><clipPath id="clip0"><rect width="34" height="34" fill="white"/></clipPath></defs></svg>
