<svg width="42" height="42" viewBox="0 0 42 42" fill="none" xmlns="http://www.w3.org/2000/svg"><path d="M41.5909 16.8874H39.8994V16.8002H20.9997V25.2001H32.8676C31.1362 30.0899 26.4837 33.6 20.9997 33.6C14.0414 33.6 8.39987 27.9584 8.39987 21.0002C8.39987 14.0419 14.0414 8.40036 20.9997 8.40036C24.2116 8.40036 27.1337 9.61204 29.3586 11.5913L35.2984 5.6515C31.5478 2.1561 26.531 0.000488281 20.9997 0.000488281C9.4026 0.000488281 0 9.40309 0 21.0002C0 32.5972 9.4026 41.9998 20.9997 41.9998C32.5967 41.9998 41.9994 32.5972 41.9994 21.0002C41.9994 19.5921 41.8545 18.2177 41.5909 16.8874Z" fill="#FFC107"/><path d="M2.41992 11.2254L9.31936 16.2852C11.1862 11.6632 15.7075 8.39987 20.9983 8.39987C24.2102 8.39987 27.1323 9.61155 29.3573 11.5908L35.297 5.65101C31.5465 2.15562 26.5296 0 20.9983 0C12.9324 0 5.93737 4.55378 2.41992 11.2254Z" fill="#FF3D00"/><path d="M20.9987 42.0009C26.4229 42.0009 31.3515 39.925 35.0779 36.5493L28.5785 31.0495C26.3993 32.7068 23.7365 33.6032 20.9987 33.601C15.5367 33.601 10.8989 30.1182 9.1517 25.2578L2.30371 30.534C5.77916 37.3347 12.8371 42.0009 20.9987 42.0009Z" fill="#4CAF50"/><path d="M41.5919 16.8874H39.9003V16.8003H21V25.2004H32.8684C32.0401 27.5277 30.5482 29.5614 28.5769 31.0501L28.5801 31.048L35.0797 36.548C34.6198 36.9659 42.0004 31.5005 42.0004 21.0004C42.0004 19.5923 41.8555 18.2178 41.5919 16.8874Z" fill="#1976D2"/></svg>
