<svg width="42" height="42" viewBox="0 0 42 42" fill="none" xmlns="http://www.w3.org/2000/svg"><path d="M20.9572 41.9579C32.5316 41.9579 41.9144 32.575 41.9144 21.0007C41.9144 9.42633 32.5316 0.043457 20.9572 0.043457C9.38287 0.043457 0 9.42633 0 21.0007C0 32.575 9.38287 41.9579 20.9572 41.9579Z" fill="#FC3F1D"/><path d="M28.541 34.1569H23.9405V11.403H21.8911C18.1344 11.403 16.1666 13.2814 16.1666 16.0853C16.1666 19.2664 17.5238 20.7403 20.3316 22.6186L22.6455 24.178L15.9955 34.153H11.0488L17.0338 25.2475C13.5922 22.7897 11.6555 20.3903 11.6555 16.3419C11.6555 11.2825 15.1827 7.84082 21.8599 7.84082H28.5099V34.1492H28.541V34.1569Z" fill="white"/></svg>
