<svg width="24" height="18" viewBox="0 0 24 18" fill="none" xmlns="http://www.w3.org/2000/svg">
    <path d="M10.0534 5.1236C9.95374 5.05262 9.83643 5.01045 9.71436 5.0017C9.59229 4.99296 9.47017 5.01798 9.36138 5.07403C9.25259 5.13008 9.16132 5.215 9.09758 5.31947C9.03383 5.42394 9.00008 5.54394 9 5.66632V12.3337C9.00008 12.4561 9.03383 12.5761 9.09758 12.6805C9.16132 12.785 9.25259 12.8699 9.36138 12.926C9.47017 12.982 9.59229 13.007 9.71436 12.9983C9.83643 12.9896 9.95374 12.9474 10.0534 12.8764L14.7205 9.54272C14.807 9.48105 14.8774 9.39962 14.926 9.30522C14.9746 9.21082 15 9.10618 15 9C15 8.89382 14.9746 8.78918 14.926 8.69478C14.8774 8.60038 14.807 8.51895 14.7205 8.45728L10.0534 5.1236Z" fill="black"/>
    <path d="M0 3C0 2.20435 0.316071 1.44129 0.87868 0.87868C1.44129 0.31607 2.20435 0 3 0H21C21.7956 0 22.5587 0.31607 23.1213 0.87868C23.6839 1.44129 24 2.20435 24 3V15C24 15.7956 23.6839 16.5587 23.1213 17.1213C22.5587 17.6839 21.7956 18 21 18H3C2.20435 18 1.44129 17.6839 0.87868 17.1213C0.316071 16.5587 0 15.7956 0 15V3ZM22.5 3C22.5 2.60218 22.342 2.22064 22.0607 1.93934C21.7794 1.65804 21.3978 1.5 21 1.5H3C2.60218 1.5 2.22064 1.65804 1.93934 1.93934C1.65804 2.22064 1.5 2.60218 1.5 3V15C1.5 15.3978 1.65804 15.7794 1.93934 16.0607C2.22064 16.342 2.60218 16.5 3 16.5H21C21.3978 16.5 21.7794 16.342 22.0607 16.0607C22.342 15.7794 22.5 15.3978 22.5 15V3Z" fill="black"/>
</svg>
